<svg id="Composant_2_1" data-name="Composant 2 – 1" xmlns="http://www.w3.org/2000/svg" width="100%" height="100%" viewBox="0 0 18.835 19.445">
  <path id="Tracé_338" data-name="Tracé 338" d="M1060.573,559.874c.4.073.81.129,1.207.223.9.214,1.8.429,2.7.676a8.95,8.95,0,0,1,2.541,1.231c.769.51,1.516,1.052,2.273,1.58a.152.152,0,0,0,.111.035c-.256-.239-.513-.476-.767-.717a30.837,30.837,0,0,1-3.427-3.7,13.748,13.748,0,0,1-1.7-3.137,35.738,35.738,0,0,1-1.33-3.907c-.008-.026-.01-.054-.023-.128.228.209.426.387.621.569a33.428,33.428,0,0,1,3.624,3.865,13.685,13.685,0,0,1,1.777,3.094c.53,1.252,1.015,2.523,1.519,3.785a.749.749,0,0,0,.1.2c-.125-.494-.254-.987-.376-1.482a46.657,46.657,0,0,1-1-5.147,15.755,15.755,0,0,1,.049-4.426,43.31,43.31,0,0,1,1.462-6.2c.013-.043.028-.085.059-.178.09.34.169.634.245.929.391,1.531.722,3.076.963,4.638a16.712,16.712,0,0,1,.24,4.238c-.121,1.2-.272,2.393-.481,3.577-.23,1.3-.542,2.585-.817,3.877a.078.078,0,0,0,.019.072q.088-.262.178-.524a37.273,37.273,0,0,1,1.9-4.667,13.333,13.333,0,0,1,2.275-3.13,35.691,35.691,0,0,1,3.207-3c.021-.017.045-.029.105-.068-.137.4-.258.768-.386,1.132a37.133,37.133,0,0,1-1.657,4.019,14.458,14.458,0,0,1-2.472,3.506c-.86.922-1.755,1.812-2.634,2.715a1.465,1.465,0,0,0-.2.229c.323-.246.644-.5.97-.738a17.109,17.109,0,0,1,2.83-1.8,11.214,11.214,0,0,1,2.7-.827c.723-.138,1.452-.246,2.179-.366a.5.5,0,0,1,.231.014c-.254.2-.5.411-.763.6-.793.554-1.582,1.116-2.394,1.64a10.108,10.108,0,0,1-3.152,1.251c-.852.207-1.71.384-2.566.575a.09.09,0,0,0-.061.035,10.013,10.013,0,0,1,5.51.73c.425.209.858.4,1.287.6l-.013.052c-.294.021-.589.063-.883.06-.821-.008-1.644-.009-2.463-.062a6.854,6.854,0,0,1-1.935-.508c-.642-.24-1.27-.514-1.906-.769a.231.231,0,0,0-.166,0,24.79,24.79,0,0,1-2.671,1.078,7.571,7.571,0,0,1-2.767.319c-.6-.027-1.189-.085-1.822-.132a11.165,11.165,0,0,1,6.961-1.326c-1.031-.224-2.064-.442-3.094-.674a10.511,10.511,0,0,1-4.143-2.041c-.547-.424-1.081-.865-1.62-1.3-.061-.049-.116-.1-.173-.155Z" transform="translate(-1060.558 -546.114)" fill="#74e88a"></path>
</svg>